<mxfile host="Electron" agent="Mozilla/5.0 (Windows NT 10.0; Win64; x64) AppleWebKit/537.36 (KHTML, like Gecko) draw.io/24.7.17 Chrome/128.0.6613.36 Electron/32.0.1 Safari/537.36" version="24.7.17">
  <diagram name="Page-1" id="9UecN5DJ1SxnDj63dsqI">
    <mxGraphModel dx="3127" dy="1279" grid="1" gridSize="10" guides="1" tooltips="1" connect="1" arrows="1" fold="1" page="1" pageScale="1" pageWidth="1000" pageHeight="1000" math="0" shadow="0">
      <root>
        <mxCell id="0" />
        <mxCell id="1" parent="0" />
        <mxCell id="_o2MQma5wxqa7WwXLpFi-22" value="" style="endArrow=none;dashed=1;html=1;dashPattern=1 3;strokeWidth=1.9685;rounded=0;" edge="1" parent="1">
          <mxGeometry width="50" height="50" relative="1" as="geometry">
            <mxPoint x="300" y="310" as="sourcePoint" />
            <mxPoint x="300" y="280" as="targetPoint" />
          </mxGeometry>
        </mxCell>
        <mxCell id="_o2MQma5wxqa7WwXLpFi-23" value="" style="endArrow=none;dashed=1;html=1;dashPattern=1 3;strokeWidth=1.9685;rounded=0;" edge="1" parent="1">
          <mxGeometry width="50" height="50" relative="1" as="geometry">
            <mxPoint x="560" y="310" as="sourcePoint" />
            <mxPoint x="560" y="280" as="targetPoint" />
          </mxGeometry>
        </mxCell>
        <mxCell id="_o2MQma5wxqa7WwXLpFi-24" value="Latency" style="text;html=1;align=center;verticalAlign=middle;whiteSpace=wrap;rounded=0;fontSize=16;fontStyle=1" vertex="1" parent="1">
          <mxGeometry x="400" y="280" width="65.02" height="30" as="geometry" />
        </mxCell>
        <mxCell id="_o2MQma5wxqa7WwXLpFi-25" value="" style="group" vertex="1" connectable="0" parent="1">
          <mxGeometry x="190" y="320" width="490.04" height="110.85" as="geometry" />
        </mxCell>
        <mxCell id="_o2MQma5wxqa7WwXLpFi-2" value="" style="shape=stencil(lVhJchsxDHyNriiC4Hp2nH+4ynKsimO5ZGX7fcCoOBZBTUu+jUbd5GBrgNzI3fvzw9t249378bD/vv29ezw+b+TLxvvd6/P2sDvq00buN3L3tD9svx32P18fT7/fHhqyPf3Y/2or/DnxHIlvJO/+nl5kJsn/33w94V92r2d4T74M+JTIuXV8JO9GPFOo6/hKwgM+JmKA50B5NCAU4gIMYHKjBcERR0DIVEaCSHfCRYKozTIQfCGX1gnBUzaESAV8UqhUwkgIVAVEIVGNlhDBDklsXnjpVl0mFMppJDBFXidk6XnWCVwpeUBIVMZU4kwJ2JCnXOIICYVtsrJQCoCggTM2OAog0iX0v5dy6CtcxieLD+RAFEqhYj6IMqjOyt2+jneUQdBqsC515FE1p+7wDzyj9QsFZ/DI3qopUy0e2VspW3wC8VK8qX1PEZS+4k2dRYp4/Tp+T4XSwm6x7yxF5coOowVaNUjgG8GIketOWPWR0RahCKqmBcFIRYT62KI8EZCblBANIcAuooRg4sxUrhBGfeQC1UsJMka6dS7sJUvQXMW1YD5JtQWo3Wyz9Bc3OpWJcSKZqGnuYny2eMG1bPJOQ4a0ZUpsFeMrhTD6J/cXN9cm9/K+sfo5XXORkRdeBO1W/fKw4cwCqV5KeAejwFqbVwTpkwTtCTwRPtV0lAAjHaZhBw8Kc9v0OHCtLxujMzk0iqRJkFQPQPa1yWLcQTxstTq7mHFK59YC6q1NR6OXpMJm2+YvU3AMu3mb8MZIByEHNHKeIYN2EqDC85QadDIGO7Q52NhQYD3Mk3Z00IZ5llcC0uH5tBAZpnc7j5gdpLth9cQz5lKsxMCtrROYU16CveGj9y3aqvmLuqENQ0tfkN3TEUwrMIKwebt+FTgIu+nw4vDkuczJywYad1ALih9LQWWwAAfpXD06tKrAAIOdPQWrCCYQsWUOX/Dc03ANzzYAKMBT71RBQ71zXp/hZO663C4Jt7SVNX+O35MjPCkofhQW1SZ0z+FsTWYPtfGz9zTX8frwcSn0tHt5Od0pnf9vL5H01ekCSu7/AQ==);lineShape=1;strokeColor=default;" vertex="1" parent="_o2MQma5wxqa7WwXLpFi-25">
          <mxGeometry x="107.47927658027956" width="262.3207318179385" height="6.388849877785193" as="geometry" />
        </mxCell>
        <mxCell id="_o2MQma5wxqa7WwXLpFi-3" value="" style="shape=stencil(lVhbUhtBDDyNf1Wa98w3IfegChNcIZgy5HX7aOLS4tF42/afWaRdPVstbcLd+/PD23bj+f3jsP++/b17/HjehC8b73evz9vD7kN+bcL9Jtw97Q/bb4f9z9fH499vD12y//qx/9Xf8Oeox5RCV/L89/ggZyr5/5OvR/mX3euJvKNURvlCya3Le4ppko/r8oFCsfZEIB+JzfsTxbYun4iNv5FqQvIlWvkG/M1TfCIlvy5fqIbJ/rou3yi3W+x3nlIeFTw0yGUKo0Wp6ZPzGWaqY4iSJIWBQlKLVSEW9ep8TTCV0enIMAkhaY2pQoiax/MKjZpRcBRQ2QUqdVRgfXJeoVAcwxo8eaCQxMUxSiHAL0jUI1uFDPKQKjlvna7A6ewoj7Xkq5b7eYWkQVwUJDPApFyt0wIgSKF4cqNJrlEC/VASufELrihEnVeQDh3D6gQTQPFVnr4gkAGiVD0F84VAFbRolUyPiZMuR6BRpafHBnKOGJlUrYLgDrCosYW9qnk5L+8pj+0jUwekuUX994Ix5AEmtWwjFOBUawJAptmIQY5bpWjKjjKSb9qJS12LQSigjWKxCg5FSEDadI7TslpT8MaFCid5V3C2ERglQRRMXTt9xarCmLWiYV6VN3OBHJqdbWoDOHdEPo0eM4TsnuVo5FGXiXwpxp4LOa5m6GgO1+Sbmf0UQPwdsw7uz7ZviFzMCgJdBYfUmNThFzeC8VmCCgnSFFQZIRmXqcmahDUDr+eyEAXEUee6E5MYO20Ku0+1C61mJkImj02yvekhb567vyqEXwkvSb94LX5RxFhhAJLxhJoQmCFJvVm+ToCNmUsfOYZMOVynyyJ08gWHFKLylNPCRiZ5u1z0dQkBmIx905wZbnfCKwxHlTJCYRXmEo0PDdK1zo0Mk5f9BIBkZ1/jFzoxRyZN/E54dgBf6AzSkBGZU6C2O0cdSyMkuOR1FmwGQ1GcXeXZY7X2jQpR/6QuLgoBf8FZhicbEKqlvo2YvZMVNq/cd5KH9CKxXfISxrxYLItMDiZu3gpjg+MwTOMwLS21utmOiZMwIJrXq3/0IUsYAFD27dxcGOrF/X90WuoXEcl+YRidlh5kfMMwWCywUOGRpIw+NwcTXRQhFnkZVmivVbK/yFflENcdkVqD3TYdqU6I1nVXsD5OQXdOV7Y+vm654sn0gkzSVmmXBw5PV0ixh0HC2LZ+n6bw/X4sURmmqGvY4qnMUgcqlNXak4JDPcM2wVXwGhT0RLNlzKH4z/IM5/JkT5EGAw0w+VsCPCpO8SwM9/0pX4JB6Koz1UMucBTcevW+LC8/Pk/sT7uXl+OF/vT/9iQvj47n/HD/Dw==);lineShape=1;strokeColor=default;" vertex="1" parent="_o2MQma5wxqa7WwXLpFi-25">
          <mxGeometry x="121.53928465185435" y="100.85337840896383" width="257.9283387124969" height="8.815950919109595" as="geometry" />
        </mxCell>
        <mxCell id="_o2MQma5wxqa7WwXLpFi-4" value="" style="shape=stencil(lVnZchs5DPwavaJIgudzjv9IVZy1ah075Th7/P32rIojARy1K2/SCC0SQKMJcE764efjlx8PpxR+vr2+/Pnw9/nr2+NJP55SOj8/Prye3/DppJ9O+uHby+vDH68vv56/Xr7/+LJZbp++v/y1/cM/F1ytkvqGSuHfy5MgWv5/8Pli/3R+vrFvWYYa+ygx3rfvKjUb+yQ9EfsuuRl7LEjsR5BWjX2TXKl9tf7GIIEAsKHmHE7zyTGgSnArFMmBAJKUYgFNBtlS6/P/9pjCK560aldIKoVkrQVJ1ulUpZAt1Tx3vAPGTMwxYFlBleahFJ8HrZSpJUm0TNIhud8H5CHdRiknDkAekgUUSYSsuXry5TafHANURrSAIYM4nVEO1ukSZ8EeAhDEYn0oSumtYL8taGSmEHqDCN1SozRJJNOpS7T0LkMCCetW8jasYFfPdIUwLCBJHdSHYKkBwrMoATBslGqbsnAc1jALcgeMmcpjQBS1gAa2Emro/vMOQNGyLcFFB0DiiGpo8yUKpRrEB7DV0bsHqt4oF7VshXg2JgLqK67zxNUo1W2pTlk4lsroVaMPesJtQbT0HpFqK45Qx9ahVJdwZHXrwygSCb3HkGJVY/Qpz/cArgsAoBERwM/VOT0kkrBixy16QCE1fQ3iDYB2GlC+4QGsHnr05NsAJKwNB9TiNNMlVLCTmWtmjtkKXdIlrGRLUKFidWlLHNkSAG0BJL6l6qLU3nN6NA9g9EYBOSEDgLF1a7C6B0QGwI51ARCnR/INFgDK2lCQb1mhshWQ6aVE2YESA/ra4BG0goZvybZFWVHXJUxjdkTHAD3gN2MflGytoMEA6sN0E4d7bBrrEqw31tl23gBY6lARvXmAkjCh5tyRgsx1XtW/Byh9HuQ7oNIooZl2Y+LItIlDJ1ydHCdRUnN5GQi2UY2kGh2TWv3uvIQw8zjd6EWUldByjoJeSqIU89KeBHoGYZR0vUBDERKnMay6oQb8VZLpPoVuty9UNqqfRSHPTDSWyfLK9uMk+NMB3GUH1n67cNN4d0IjxMfSrvJpfRFJjA7Mfum6UUpszs1ejwpEkzUZEm18MF0Fth/1DqPlZYchSJ1t2WBCLGRHaTmfMYM2IpDgkGsO0bYXPix122NAPdj5jNmnWx8wqSsblpAGu4IOqkYYZZK7PKgz0Md5jlMOd0Cac+89gVR3xTJolPLSpCPQrMeAZle3gtJzB1RzTqM82M0VuF9tHiLaRXayIXG23GKhelfVd/VxV5B7F1H+Mi1wwVPPVn4lAxfc0Vko9bagWvs0R6F7l0pOkSI9QvJygRv5/++j4NWesShjXvb28Z3/t/7yuxjs351QYc5l964A3H4CjX/eZ7SrPTtwtqrx+w88vyV4e14z7oKb24Nvutjzm9jg4xkZn3/zBcD79vhwfdvw7fz0dHlZcfu7fzuBR5c3G/rpPw==);lineShape=1;strokeColor=default;" vertex="1" parent="_o2MQma5wxqa7WwXLpFi-25">
          <mxGeometry x="365.8545106940582" y="0.6907014955248403" width="9.401947406400861" height="106.4870894211376" as="geometry" />
        </mxCell>
        <mxCell id="_o2MQma5wxqa7WwXLpFi-5" value="" style="shape=stencil(7VnJblw3EPyauRJcmtvZcf7DgOVIiCIZsrL9fYqYcDQsvinFh9x8k950kezu6o08pQ/f7j99vTtF/+315fnXuz8fPr/en9JPpxgfnu7vXh5e8dcpfTylD1+eX+5+eXn+/enz+f+vn4bk+Ou35z/GCn+dccnVNkDR/z0/pPOHn8/ijw9PV+LBpbSIR+f9bXHvQlnEg7OoxP9d7E08JCWebBH3rmV1djqMd7nfFo/OAomnclvcnI8kHoQhs2udxL1YvbrOqyu7d9e31YOwTHC9srwwTQBr2JTRhHx2MZO8KfniEssXxcrKxPGuCyYM1q76mrQPvEX2KS7X2/IJzFrP310RvE95I36UYZj6ZMsFYJNQx+zEeisjYLMkVDBjFQJ0UPwvHAAIuK4A1YX1SPBCVIDm0hqRcIMJt1l3bXVbbM6E0jlMt16yIYgn4iynacQLIEqm5uzCqkPSjsuFHZdgN8GlXJ2t1ABZkrBSbq6tR7LgigAUP/16ASRXRDiX5DrtkF0WVip1EuECqDPXHwO2hAeydKFDDUyNjJhVCTi6uhabHGUA1eT8WlmzySQJQFhrK3wfBTUAyGvWgCtVWq3mwgqAK5WnASBqlDj7hWNA5gAqJjMxAEaAOnPzrSMR+eB7r450sfoEwPcqgGBWWxPZ8Mw7nqYdsvZ0dG31dK0y3Q/A6rjanYm8NAAr+Ro6NwUAl1alG7QSvdfww3qkhoqhlAY314LS6qTjIQAnjnSkLumNE1Pm60HmpVZmcr8AkMhExGE9I0CedjsGdI7pXqcrjzsZv/XAvUnPYYvSGNBEUONnqrtYIgr2QcfqGaBagR43R3SZjdtWgq7scIxAHbVtC8FXsIliDoCqIgJG2QBJRUSdufTaESpv1I0cTY4YADRqK/FFAfrmuSo7phY5HXedjts2x/QilUYM57YBRJD2S/K9Aqi+Ej/HxjqodAyr584AlTdAhEbka3JQHdyMDJA7bAHxlkluKV0iA1Q6HpluC2rpBwRkZkAXyRLZNe0hqqgRuScbIap22HNll/09apDfrCSrXJs//1eA5+ZheEa1usajZTfZ9aEDC+QHzFlqB+/qqgNiUNWg3Hk6RqWWUxAijgAmSxCmIC7tSdIbrfP39TPYwa8BhFyY1Jy1DWajJxNpZuhAPVmehfUWINMOusUaox+1iV5GHEY/vyay0t4DUH0Y3bdo1wGgdF+yvCmCDn1lK/irWgEAKOIGf0WLNRy37oApKGsuUYgOQ6sjGXcC+CLJZ6wDZsWsAFvDZEhkSoctzdjlhvDWZQsVxXFfI9K9Gbe6GPLldQ7GYTpSkGnG/EzuVxcVJnZInaegVKUfUuOimC5t4zGg8EVFirKrxHpU45KffeYxIHEbGpusDzgATdTj7lHpENhK0WTmGydeyRejHJBj54IS+hwGjwGNm/VQ5xK37lupTocse+9x37vSO0T9FpC5hQteKr1NWXp4Ne7UTd4u/XgnuZnpfryTCPn/+Z0E8pkifb4KHMt3vmCMev3O+iYXlf3RzlC6lf1+2K464BC1fuVnlSSrKvxFk6PJu0jwobG8ahmRxOhmUV8hhy2PXFqX4wGK6WMTfzxJzEbsSlvVpGxvIzLt2C5eVCX9vofrd8Xxx9sb+ZeHx8fzE/v17/ymjk/n9/j08R8=);lineShape=1;strokeColor=default;" vertex="1" parent="_o2MQma5wxqa7WwXLpFi-25">
          <mxGeometry x="109.8084740593182" y="3.635720819168101" width="14.834281714199744" height="107.2142791808319" as="geometry" />
        </mxCell>
        <mxCell id="_o2MQma5wxqa7WwXLpFi-7" value="" style="shape=stencil(jVbLctswDPwaXXdIgC+c0/Q/MhOn1tS1M477+vuCVeUGVIXpjZKwIhbYBTnxw9vx6fUwUXi7XS+fD9/n59tx4g8T0Xw+Hq7zTVcTP0788HK5Hj5dL1/Pz8vz61OP7Ksvl2/9Dz8WHBeU1FEUfi5vYggI4ferjwviNJ/fIShB2CCkItd9QExIAyAg8z6ggKqJr4JCzgagZuJLhrT9+Du/NT5HhOQwRs4mXovGZT++odh8iJHEyb+i2gJFRnU20B3+fF4BDeS0LAWUaCsKdhLKhGAZx4gUnY5FNEs5Clp2AIJge8z6C2eHSmiWciprkrsAy0GTDI4qekp2h5rBjuw6acuh1VWJu2W1XpOM6pDufbNKFVmlsisMS1oaxNmhS48sgMGOF1TbA2detfV/3qkB1fn/1ptlbcue98XKIiJ6TRtnhVohOT3rw2uYjwXZAfTxODQZ2SHcB/BQIZfAdmD78d0mNp7cgmq9o1WEfxwUnYW2Y9H35X023zuM6MS3NHog0jo7/gmQOEpUM0oOAymowyxS1TrjUU04pJQygueysJV1hThd0yNVNr7xZKe2zcORQCCvriqbYbb4gNrGc397U9DF34vGy3w6LfeU99/Hi4m+Wi41/PgL);lineShape=1;strokeColor=default;" vertex="1" parent="_o2MQma5wxqa7WwXLpFi-25">
          <mxGeometry x="396.1474559763238" y="16.424704058287055" width="3.5242245384780526" height="2.78479705636868" as="geometry" />
        </mxCell>
        <mxCell id="_o2MQma5wxqa7WwXLpFi-8" value="" style="shape=stencil(lVfLctswDPwaXTEgwec5Tf8jM3FqT1074zh9/H2hqnINuFxPbrKMJQksdkFN8vC2fXrdTJHfzqfj182P3fN5O8mnKcbdYbs57c76NMnjJA8vx9Pmy+n4fnhefr8+zZHz07fj93mFnwsuUKozKPKv5QWT9D8vPi/h+93hKrxRaCZcF5Awjg+ZGhuANJI0BsRMyQJSpwp2kEK9G0BuVMEOul6KBlAySR4DipDYpEunXMeAWqgFA6hMLKCqlbLYHcpa6P8CeqLqAEyZAaBRsYDGVDEg2rLWRh2UtVfPQ82QBwVUBwgrM0MA+yolQNwMcFUKsPkU0CzTuax1G1Up2B1yXBt+BPh74guAKYJeUkCz3ar9K2iHTqF7QEe9pM0cfQ4RlVUF6aqkKkc56AFs0tqtqQDXYNWLozpTRszpFpYIlVzGWVd7Jm1Xxjs4p1RBJJx1uJFcBk6mVNfiAR13n/PK2u+Jmi1zalUdK6i5KsV7gOrMVSVyB2C9Uu2WsQs4QajfBwRoq/deAIJzuEyoK43eAZQbySXcS1w8AE2UjwOSJ66rz4AqzSPI5tAL5GEecrb5rlQ7nKOWCE2rgMvG7HSWiJ6pgKz1LtCsRltf9xzdNqLtPpVcAVTrfSbZI813AWBldT3wlbmiMcreKkVW6gfxbn0J69AbxCfLQbzY/yA+uvgCG4+9w0SBtqrxloDQoV/cDAZlBKmfvXBCgDcr9tOzQnrZXw0TJbh6sd4VKYCJwNTsYfBMC/5yjvX4wav/3XB9+PeV8bLb75ePlOv//VeJvlq+aOTxNw==);lineShape=1;strokeColor=default;" vertex="1" parent="_o2MQma5wxqa7WwXLpFi-25">
          <mxGeometry x="397.27130163087634" y="16.99943369812339" width="75.45692220536476" height="5.480742642663575" as="geometry" />
        </mxCell>
        <mxCell id="_o2MQma5wxqa7WwXLpFi-9" value="" style="shape=stencil(lVfLbttADPwaXYkl931O0/8IEKcW6tqB4/Tx96UqyDEpa4rclPVOSA45JHeID2/7p9fdIOHtcj593/0any/7IX4ZRMbjfnceL/o1xMchPryczrtv59P78Xn++/Vpujl9/Tj9nP7D7xlXKOcJJOHPfBAo138HX+frh/F4cz0GSmzuc6bWtgGpUSkGoCYFACoTiwHERj1sA1qlnAwg1cXJu4DeKVYDyIkSsMAhUAgGUQo1gOhCqRlAFUhTrQspV0CjCCxk5dUG0XAQSXm1gK65LNsAaT4RPS/E3QcEH4MyXYAFbtRs8d0wfR+hmRVvooJccyGOFqBGESCvosbVxIly8DSVDAHRWYg4hkTFAZhqhzFEy6ummjFLyUqoKUsC81CbBwRQ39xJbB5Uth2wpMVUoreQEICpuRg65QgAQjV6WgOq70hie5/KvANaJ4BLXKKGLIintZfFya2gu3MJtw2l1QfdcXlrs1wBOhJ1pdY9AAWtxef6twIYAfKqCWgtoWpNfgYprYJiSKug9QQDkmuugmnNFJxL14LfYilYTWt5C26Vrs2ogGDQnwVIpu4kmqii5aEv+roOuQ7bTF5tJ1UlBSxU1Zd1SQd1QbtA8q2yMKylKURb3llHN+hLRRujBehK1ED3Tpmy1XQssDR0oao2hmmrAzGIXx2YoUc6bcTfZ1B6gboVNOtUB/4Eim6YwKYXvHQ0AcD71e6W4fAMvslrhYACUtVa3wWONfahMlSMLAL82M4bUGT0C1iAAk7eGbx8advt7jpaKj75svjvdf34eMS8jIfD/Aa6/d0/evRofjDFx78=);lineShape=1;strokeColor=default;" vertex="1" parent="_o2MQma5wxqa7WwXLpFi-25">
          <mxGeometry x="467.6551748088088" y="11.180199657356004" width="22.38482519119128" height="16.592418743034752" as="geometry" />
        </mxCell>
        <mxCell id="_o2MQma5wxqa7WwXLpFi-11" value="" style="shape=stencil(lVfZctswDPwav2JIgAf4nKb/kZk4taeunXHc6+8L1ZFsQtYmfpOtXRHHLkiu5OFt8/S6XnF4Ox0P39e/t8+nzUq+rJi3+836uD3Z00oeV/Lwcjiuvx0PP/fP59+vTwNyePpx+DV84c+ZFynWgcTh7/mPkqmG//98PeN32/0VPpE4fCKNy/hGoXm8yDI+JmpuAaGQlgnMpNwTAgUQkQilPqQslBmkXCiFjpASxbZMKJGkX0GYWJcJNVNLHSE24rJM0OpDUkqgqi35IjFl0OWm1Hq81RThLdzs8BnEb/j311fxgIoaXvt8MynGtz6eGEYh3pZdmBKcGIkq6NmwxKxnCQjVCO/fm3IWKriouV+By9jGxS5IT1CqFbe5T5qnTywRsvoVImq0EvdWsM4VVFal4FZg6P9WqfVSipUKqlKdNY6xmHQM4GI2QRGpb0OilCHeDaSIE9Bx4l7MFtH32/j6gmesu+QqShWbubLLtyDVmXOiqyfK95Y35aMM3CZimmjYOdqXyFQneIXirGYTCY8LcWZWuCcYIfRV4mnI3kFAOk3eCBLhfLFdxw0kqaRAGbVQ6PuQFFbJds7c51AYatv2ZkeoZja8++febJqIQdI8DYeR0OJ4Brot10yht0PLWEsU+6rahEJHqtkR7MogtyPyZ7xhIoAFwixjHdW+gC/sE0D2DP54NCgRxsPBdwAN7OBVpwrPnLPxYpJIQBJz/JTR5+IxXyTgglm+leH0mtWztHFf/1y/iu2Y9+ihFHj+vfdO8THeHi4XmJftbne+/1y/9xce++t8WZLHfw==);lineShape=1;strokeColor=default;" vertex="1" parent="_o2MQma5wxqa7WwXLpFi-25">
          <mxGeometry x="394.92742237767885" y="44.969276467621604" width="71.98425544115253" height="5.074005082037561" as="geometry" />
        </mxCell>
        <mxCell id="_o2MQma5wxqa7WwXLpFi-12" value="" style="shape=stencil(lVjLchpBDPwarqrRaJ5nx/kPVxkHKgRcGOfx99GG2jXSsJ3ybQH1zqin1dKwkYe33dPrdhPD2+V8+r79tX++7DbyZRPj/rjbnvcXfdrI40YeXk7n7bfz6f34fP38+jRFTk8/Tj+nN/y+4iKlPIFi+HP9IlFs/774eg0/7I834Y16MeGBGq+Hc6XcXXwI6/ExU7fxTFLW4yUTJxOfafq0Fp+EcjTxnTqIz0xN7H50gboOKEyRDUAZRoTWQGJXUI4rWKF2ysEAJhJADq1SsltKumZeB3QhsSsobQ2cGoflVJdjiFTBuXWVnQWURAFk3fIA6LNy79NUKVqlVqUJnZzyamlqy9HcB0QqVnstUQeAXGYWF0CjDLSRik9aj6aBpCXM4lwAnSqoT9VasoCbs7yPKFSGJQrgVSsy2IPoKnCQRNQcXY1WkgQBwW0pz7ZzHxCpdc8rzGGoiM6wIiYXtbbaAzEoCGWpWIBqAzlTrLMx3gAiUJ86HTcPYECriqmLByCWRIvaFUSHVibqxuJpFSBXScRDQcAc1FVs0ioN5DO6peQAWrWgRjVpGeSdUA7aMS1LWkAJia8POWjTQoDB+hSAbEPFl4eaRi1F5c2ugCo1JG8ZtlQoogKKM+sLIJGgLckgjaXHrNqMWyFQwSXKrkQ7bO1qldXSqgUkyJc+C0jRjzNNiQaAcZ7RcUIAS3kYHmqBFVcG56sMXWP62W6paIsBW5p27AABDhuteVqVBtQVW6TuhuJKBdBahzFUTwYZWclUrfikwOlEZwexJz1NrqCmdcfBAYQqskq1GZs0K28gaWE/iHKC48zUFK0JMJ7uWeXtXGPW+31WZ0tZ3q8vAClnP6vzMhjc53Ru4TfxHTFELMP70TQ2S+AmXgCh7AtB+ayAn8XfPoY9akB0wfPTYSscLgFYPxpuawbX2HBPKrNvrIQ3q+YMXYh9B0ww1U/emv8brg8fF/SX/eFwvd/f/u4v9PrV9c8AefwL);lineShape=1;strokeColor=default;" vertex="1" parent="_o2MQma5wxqa7WwXLpFi-25">
          <mxGeometry x="456.4596114718132" y="34.0240163754265" width="24.19997838357567" height="22.947691027633432" as="geometry" />
        </mxCell>
        <mxCell id="_o2MQma5wxqa7WwXLpFi-13" value="" style="shape=stencil(lVfbbtswDP0avxKSKFHUc9f9R4Gmi7EsKdJ0l78fPcOeqcIn6Jvj8ISXc3jJwA9vx6fXw5DC2+16+X74NT7fjgN/GVIaz8fDdbzZ08CPAz+8XK6Hb9fL+/l5/vz6NFlOTz8uP6df+D3jIkmbQCn8mV+wUqv/3nyd7U/jeWtfSdQBUqMY9gEcqGUHiI0k7gOykiYHqJSAAynE1dkHCsC+KhWfAVPN+/Za+xLFTAwSaEzclahQATVtSsweUEkbBKivaTLWGADaEvGac6KKAR3Nky5AVQ3QPGtZqCoQUlhpWhDFyiTYhU9C7hBhSXhl1EQxQUDyVJtYIkiifdCqRlJUV6PaJ61GBArJlNABAmauEovPQSigHCoFrz6xMiAepFefWI8jD9JXqSQ4MwzQfA6ZcQfVJeJVroJzqL00pjlVIHHRe7CWi7hH+0GplFAOrffAEYuvLTXZJC1Y3tqVNVPAgOb7wYiTO1PAe5BIGfd07QDr5NkDZK9Wk3dGIemizU0DNTQ1lHIHSHBBfB7AFLoWzcvK2FtBxQ8BYVKg1mnH+RYtGU4+W6LZh1QiMZC3bemO6dJgA5mYQ+uTTsCDXRrqmVaBWopLSdY9HfAlYNL0Y2kSFyiSZeD3j02RCJQUSHxARjwaGYHY2ys+AwJFT7ItnwLiD0uzbxjIgLIPC1rqwuGeve8Dk4QCWYdlHq72TAnG34k6r32xY68+HtsiAd22fTzZKgztP3k737W3h/+H+st4Os13/vb7/rC3V/OfAn78Cw==);lineShape=1;strokeColor=default;" vertex="1" parent="_o2MQma5wxqa7WwXLpFi-25">
          <mxGeometry x="408.9672097940029" y="74.34006278344184" width="53.11547302946267" height="3.0869606823282107" as="geometry" />
        </mxCell>
        <mxCell id="_o2MQma5wxqa7WwXLpFi-14" value="" style="shape=stencil(7VhLblsxDDyNt4Sov9Zpeo8AcRqjaRwk6e/2nVdXtkX5TdpVgaI754WUSHFmSGkTrl7ub562G+9eXp/3H7dfd7ev95vwbuP97vF++7x7xa9NuN6Eq7v98/bD8/7z4+3h76ebxXL59Wn/ZVnh28FPVZxbvLz7fvjixLWfH94f7B92j2f2XiUla+/W7UMQFwZ7LODX7eNkH8Xrun3y0nSwr1LI+jmI92M8UVJedyhBYhwckDFzqEFyHh2y5Lju0Ly48UiDSgnEofQAjg5JInOoEsroUESZQxPnrUNJ1CEZhyqJ71BNDq0f9EUHdc4iNTqJpNTYoo2ViyqRYBUOuY0OXgKrXBM/Vg7wVcIeFMJgAw610lI3s0OUwB10csiFOGQJ3jowBrUkSa0DLXXs0DlzULJDrZYQEcdAjrUAfWOlE8BCki6T6kFHKiF1juLGpFPunLqsSwjJ7ADEEwZhPT8KH/asJOl0FOrugKwiCQlQMxwtiYIPquJG2ahKC+eT5LFwNfcvl0ldpI5JN5VMQlJvQ1rgSEJKVmbA2Ug2AFm8tW8EGEGCTvZEMhB/neIh8aulAiSEFdlJMAcKQaD2hgg4TyYXE+ga5zJ6pcnX8wLbbgtAJNL/vW2FzVH1gtxGax/ZfCE62SfCyjzhQcWz8cJ2kMZbTukicrQPNF9IqYk/vRFPNfjPUpj09n53hk9lQirexNP4fDfhn8tosL3mbG5YAVCcCEkly45SSLiS7ud6bzwjZKb2VuCyKCGMs40JhOTr2/hDh/hKvmoAobRT+i43Z4RpJB7f4fKb9rWPP8cWUyiAMN6bgDCgF6JwyLiZvlr7eHEZcq530aMDOMzuRM2Kbs50qMO8VMccMnYgrIzNzmgJbYNNH2kaV7QrwWUeQ9bMNP4G8acrBbKKTFnqdBNUKtWYNey1CNrCZmVvxQuXFs/m/X/3HkXO9W/do1jl/t+jfjmw2WsZDUZhQuGYktVmcwBcG6n0ch8Ydwi+D9CXSe1sHZbHEXKsGeOceU1xtP/gWmQngEQnbJyJwZIqlQ2kGKcnJzbyq6VDoSMktjfQq/3SsMJoCcmsz27Lre9+MmcVqPaBrdB5ARI5nmamT1MIdVTURM+mTBToxVszH5ULjCBwLjZVT8UazWKMXemFvfZB+mSurBX0hn16aKWocbYhu/6gsIayP3r4fdseP06vzHe7h4fDI/X5/+2rND4dXrTD9Q8=);lineShape=1;strokeColor=default;" vertex="1" parent="_o2MQma5wxqa7WwXLpFi-25">
          <mxGeometry x="452.5610827115753" y="64.22716931757994" width="27.627030476319433" height="23.17886819712127" as="geometry" />
        </mxCell>
        <mxCell id="_o2MQma5wxqa7WwXLpFi-15" value="" style="shape=stencil(lVfbchoxDP0aXjW2ZfnynKb/kZmQwpRChpBe/r7a7pgiLXuavi1Gx5Z1pCN5ww9vu6fX7SaFt8v59HX7Y/982W340yal/XG3Pe8v+rXhxw0/vJzO2y/n0/vxef79+jRZTl/fTt+nHX7OuEgxTKAUfs0LQlz+LHyezQ/74425UPDmra2bN2LxuwPzmKh2Z98DsK8k3p0A9k9MtRh7psLr9hxJmrGP1Pq6fVZ7u38Y8bofTb1vdvZZ1u0Lk7DzPwB/aqJSjX2nUIF9pxztfQtlxC9TSwaQMkkGgEJiM4IDRXCF1gdDV4CMM+8CusbUApSVCi7dNcccoI20ug9oVGxWiFBGJ3SKDtAoAJ4VILYOijIJylIBzZ5QGjWQ2TEEX8lV4xDhEd0yp+RH7JNLbuWy4RPYZauMwK0R0W266krFzLGr54ArtFdq4o/oiLp65xIFAxwRHYtALyOdb4hAKjkBHNVlZPAaoFlA6aNsV+9gXVKlShiQLUArAl66UncADSsQmt4WrUGTCemGSqOVMimY6e7vUMJQktUidWEtODW05Gy6VsbKpACrGy1QRUx3r9+tUsU1Kq7kePTI1bC6eqijCa8SZ3vo5CQKa/PETU7iE/4TICOZr4AI+6j2oGSZbhHKjCpjsFpZAxRX7aPRAqTDlqIaIa6AAtRKnQWS5SGnoYVrw4YblrRTC4hSYV+iOp5UUKKyaO2pUgIiMM1j3QMQDzrwleRdiuAOOoA1Ww+6BYMCmkZWSxwzMZpxFzMxZziELmZupSEDjxYjve6PBoHFi2HaH5AQRvXe2CMOwiKNGEpSGA+WGwaQql7nzSvF2tGh/8HurxGrQI8Wg1VSNYD+O/vYoKIu/IkyVj523xhhHS/i2YfUfIyuCp9gi2yQkd4fSzb8PP2nuX78fQm/7A+H+SF9+79/OevS/Ormx98=);lineShape=1;strokeColor=default;" vertex="1" parent="_o2MQma5wxqa7WwXLpFi-25">
          <mxGeometry y="28.212029459396092" width="76.33021389246764" height="5.611572926442596" as="geometry" />
        </mxCell>
        <mxCell id="_o2MQma5wxqa7WwXLpFi-16" value="" style="shape=stencil(lVjLctswDPwaXTEkwec5Tf8jM3FqT10747ivvy9UlY4AytvJTZYBksAuFqAmfnjbP73upuDerpfz193Pw/N1P/GnKYTDab+7HK7yNPHjxA8v58vuy+X8/fS8/H59mi3np2/nH/MKvxa/wNTS7BXc7+WNo5D/vvi82B8Pp5U9M+Wg7GWBet8+RkpN2XtHju87pEQ5a4dCzt93yJlqVA4h9jNuOpRCwekQPBWwQ00UdQwsS4CgW6DolUP01CJwkPWKdkjEAAbvJIs6iNioNbAFU9FBpEYJACFRG+RypFhAXgVqTaUsRwJAZElTVQ5F9gRAJE9ek686yiDoGIg1N2qEQHCmyNqhEoMY2FHRdBXwC0BOyGl2aAkC55mCJlOrFBNI62DfqKIkUSrWHpV06P+u7BMKgPJw/gLWF0g1s6U6UD1LJZjzSwYAscXeIBYhYm7IDxODOvCUBkZ4kB/Jp8mPh7UveJn8OGrAPpOPdn2kwJLtYu0TWL/2ilrF+++E20pkhWiWJsBnaRjeJDTBhN6EcEWIDDZoxAaAAgug9t1XBeAgACVaexRwsiq3UvttEbL9ad4AMDR0/NcBgIS6rh+rCnZARd2QoAwb7NDLBOAAEuSsqguDKlhf2oZRrNBb1Z38WIn2UOGGGWquMNRlPmjvfYfn1pVaF9Vth2xrUtpYBgwSzgXjgCFjyaBpxdJrQdFw7SJ1a/ZSd+BIsXRMV9OBB2WWqqWpzB8ZOBRHUfMuixKhkcj1iek2Q5Uu3vcGQdP75hEGVGYttrlGGW+RFvk+C6xHTcDtwrZ4ZOYJ4EgypVV9pFkwAVslRDMSzYKD7giiL2bkT5DePIwI0iMicJgVTActBYLKYVCk3EfV7XprFMxwDVHz1aZIqI1aYB1QJgZEFXvW6zMc3cU+aZ4GrC9DqXkswI2iQZg8xsvMsA6OIGEQSNclf9s+dL19t0cNVtLn7HnQCPXRW/X/7eXh/Qr/cjgely8A6//tlV9eLZ8L+PEP);lineShape=1;strokeColor=default;" vertex="1" parent="_o2MQma5wxqa7WwXLpFi-25">
          <mxGeometry x="60.72527695575355" y="18.92245000349399" width="25.095426484033226" height="28.143075636043292" as="geometry" />
        </mxCell>
        <mxCell id="_o2MQma5wxqa7WwXLpFi-17" value="" style="shape=stencil(fZbdcgIhDIWfZm8zQAg/17Z9j85U606tdqz9e/tmZ0c0uJ47xP0I5JwEBl59bp8/1kNwn6fj4W39M76ctgM/DCGM++36OJ50NPDjwKvN4bh+PR6+9i/z74/n6ctp9H74nlb4nbmSKZeJCu5vngmZ6jzzNAO7cX8FVKEsBuBKrgKg9oAE8gkCbLeUhEoEQKSUDZDLeWYRKIl8MEDRmHwfyBrBG6Amyu4+kDxxMoB3jhwgYu7TVAsVkFcWCs4CTBEoF4RctKeOxHIf8IXYpikHikAIf+MNUW94AGSSaoAoFIE3AlOyeWU+p2E5S9yfQZcQILVuQOwZdJNoS9Ls3wA5u2XZTIHECqeJ9kDpSaauRiNVcAY1QhdBzeLBli5WazpkSsBLV25uRaqWRyFawTQzRRIQYirJzq5atkBqLfouwqUxLBepthWb10vrWZY6UOAeyKCCtDV625mm9gmUC4Wc3VLJMMIE1BsA2FW9JraVlQB7n3c9oMKhCLEvIM1zBPZ25/umNQ1tVEC2G+fFCC8g398O2hNQuQlVu752DBfA+q0ptnqO5JFmeuIuo9DY7KjY71UxdJV4EntifPWorW++R/dC4t7V3DlIB5cHx2bc7eb3yvX//QNFp+bHDT/+Aw==);lineShape=1;strokeColor=default;" vertex="1" parent="_o2MQma5wxqa7WwXLpFi-25">
          <mxGeometry x="18.904267064996215" y="61.09483118680513" width="2.7525811637505515" height="2.748314549109137" as="geometry" />
        </mxCell>
        <mxCell id="_o2MQma5wxqa7WwXLpFi-18" value="" style="shape=stencil(lVfZctswDPwavWIIgudzmv5HZuLUnrp2xnF6/H2haugKoAmN3xQFa+LYXUITPX3sX953k3cf18v5++7X4fW6n+jL5P3htN9dDld+muh5oqe382X37XL+PL0uf7+/zJHz04/zz/kXfi84hFBmkHd/lhcUINK/N1+X+OPhtIpP4KKIDwnQiEcHlQQgBvDRACQoClCB6hjgAwQvAInApzGACGKSgAA1jwEhQHIS4CH5MSCmlsCthgLRACRua5UAgmSklD2ULAGuTeY+gNsqawgZggEors11Nels1FBI1xAiZKOGUiDJLvkC1Y0B1UOUJ6Dd1sptDQJQGrnux5fGtFtXEQoagNyR1dklZCDSY6BillAluwNCslJKuqusaDT0w4AoqeQj1IdOwGzKoa+BXcHbbdVdgmDNrRuDsyvo5szisaZWtIlhU9P9+ApBGYZpkhyfVUe96cIMqGpmrrVsYMO3Cldiy1aPKhTp9JS2io5SbIEgGw7DAFSWtClPxVSWZ7Tn7PAhAHti7VKyqJ27+5CLDqYWMj3UVpanvKG3BpeaP6y5YcuzKHlusC8DypQ26J07w7BLLuAlMTbl+Vh8Z2B8PaOxMVReKCS1U26Wdv9qq+AljwqaJxS2XMmj6hpRRrdtkDziLluemqteAPgEMlKaNwbZJT7Tutt4J1E1FLZtIyXeelDqmVcCtPcqktTmyaBxwry5dV2ylsl5N5STXjnnaP0kNbliXtC84GY1iNj0NFqhk5QbTy4axho1vefVzJg0gpO/z5NMRkLMTBWP7b4bxEc5tVTbiYN4JZ4U27Y7iEfpXwmhGh7MA1VLWzb9rrs6I2/fBolcdyeUVtEofykDpq1FOacZF7hjZn/U2ky56WgQr74tKAIZ+aDOn26aGMQ/9s25Hc8P/z9w3w7H4/J9vP6//iDmV8vHND3/BQ==);lineShape=1;strokeColor=default;" vertex="1" parent="_o2MQma5wxqa7WwXLpFi-25">
          <mxGeometry x="19.32719217270186" y="60.03310169481637" width="65.17819799652904" height="4.315806041747306" as="geometry" />
        </mxCell>
        <mxCell id="_o2MQma5wxqa7WwXLpFi-19" value="" style="shape=stencil(lVjLctswDPwaXzEkQfBxTtP/yEyc2tM0zjhOH39fqC5ZEZLWzU2WsSLBXSwg7fju7fDwut8F93Y5n77ufxwfL4cdf9qFcHw57M/Hi17t+H7Hd0+n8/7L+fT+8nj9/fowRU5X307fpyf8vOKCkAsTKrhf1zs+U4x/7ny+Ap6PL3MAU5QRwJQEABx5HgCZagHxlaQM8Y6c247nQtUN8UweJBCFUhriE9WwHS+R2I8Je8ppG5AiibNH6kEGWTkYVwgBclAiBQPIFEAO1VvS2FOqAJBsDpybUNYBysLIcgxUAM21tr87oFACp+Rd10FDCFMGCN2TjFlLoYySiBTzKA0myYAIfZ4BZEqIuUASx2LwTV7r2kh2haybBOeaupo7oMIcpNr6KUwBARzlkeqSIdWsVI85VNUGUJ9agFmh5lYiWx7z93kdoEmDGlUPyDa+gnhurP7n8z3VsUBVi8gz3GI/GZqqloLZTyJmGG/OJ1KFzy+jiCo311wnoFnujGFBkrBuoQ5VQN1IaxmzeAGlX5rhzuITEJDXAxKbgAcHpD0gsT0hB6rGB0rFUhCQhHjBmaoWuJeuUIzoEuy0moOtywLbiJ4SmxwqeVDIpVnVLL4AGpJ9/sz015s5hUXdZzS9tL46i4es2elIT8jBuvHFUpABBYuWphxHcECOxFAcb+zf+lZozrRRl/Y8Q3OajboMy7oEotbZclGXAhT30XhNwNaxa7PSesLBVlnBThp9M84OcLDKtF3KuIL2dAdW0JnDDJypwoacF0nrCIpUpFOIGYGnwQiNLcn2Jx29BBV+sgNnjLCB6JZMR9CBExGnh2haLKt4QQ46mdWxFtSeMqhlSa0ldQA3w9x6s4gj0760NdfFl+zg72NzwHV5d+V08TVDWF+Abd8USJtuKI7CmPocmov6mNIBgneU7WThE6zoaQUDyLcAphqUhQho06S9AVRi9MYZ26w4A1S0Qn+L6EpyFIEFTK4kFgB5cFZ6EwC9lZe24/mWQNJqxcbGpqTRTJ5aijNAAElP2jTHWojRa8KHv13cBujFv08lT8fn5+uXlvn/9tOK3rp+luH73w==);lineShape=1;strokeColor=default;" vertex="1" parent="_o2MQma5wxqa7WwXLpFi-25">
          <mxGeometry x="66.80607635933225" y="47.4819016819824" width="19.585618238190328" height="30.15748388856918" as="geometry" />
        </mxCell>
        <mxCell id="_o2MQma5wxqa7WwXLpFi-20" value="" style="shape=stencil(lVfLctswDPwaXTEkwec5Tf8jM3FqTV0747ivvy9UDVUBjlbNTZaxAoFdLMmBH96OT6+HIbi32/Xy9fBzfL4dB/40hDCej4freJOngR8Hfni5XA9frpfv5+f59+vTFDk9fbv8mL7wa8Z58mUCBfd7fhEzlfz3zec5/jSeV/GNOKr4FKjU7XifyDsNiBRAgsCU9YoSk2vbABaAzhAjVZAhJnJJAaSqDACpElcF8EzRbwOKp6JrCH2N78bXQE2vyJED8c1RbbpkqhHEJypeFyCAAgCtc7RqUUwQkHTFQosHuhBADRpQqeIMzSg1UUXKc0sTV0pKjFPoNmWPeWhUdBG5UALCEEDU41MCMSbCjE8R9aK+VirRAhgNtIhba6lw94QtgFlSXnK+DyidpwUQKGGAGZ+UKAQM0Bli2cvQjGc4YsS0FM1armJjmIdoAG6XOF1DkJyIOJFGtICCuiTi0xlYfGpH3tqWOEOznwZIFx25t+G/Z9RRw1UbqxR3TjtGY+SaKIL9ZLIyM0GuW8+mWWoXKLGP+RbVVburzCiUq5TobAaojQ8DUvetpa2l78ObW5ChunT33NzjjH8zBaA+2USrZloMv4EupbuiU4YA+Z7XAyHWF4GWpqOG9sraYFvDHUCYcaBLclxyGrAakY0DWdBtFTlmNHLWvYV6VMIdz02MD4yP69O4xId+3NqIZ81yFRrh9w1nVZQNOirdM7NW4enwzpCm7RCu35kzQyEGLrzsAqszRob1GnMRUWdYbzSDHOD+7yhrt4siabgeu3MWqIePXjD24+Xh323mZTyd5svQ+n97+5FX882JH/8A);lineShape=1;strokeColor=default;" vertex="1" parent="_o2MQma5wxqa7WwXLpFi-25">
          <mxGeometry x="3.204285282870351" y="92.23096435058191" width="69.8168244457849" height="3.293252704380969" as="geometry" />
        </mxCell>
        <mxCell id="_o2MQma5wxqa7WwXLpFi-21" value="" style="shape=stencil(lVfbbtswDP2avBKUqOtz1/1HgaZrsK4p0nSXvx+NQJ5J22cokAfH4rFEnsOLDnL3/vzwdjxEfr9ezt+Pv06P1+eDfDnEeHp9Pl5OV306yP1B7p7Ol+O3y/nj9fH2/+1hspyefpx/Tl/4fcMVamkCRf5ze8E0/dPf15v5y+l1YR46cTT2Qi3v24tQLMa+UWv79qlS7MY+JJK0D8iduj2QHrGUfUANJHaHmKjJPqAF4mwBnSQAgC43GyOhXPcBPVOzRxINA4hqYCZmg0iRAnBCtwiW5xypIicadUtcrpQ6DJOLa4nUgNdKhGOuqDYAcyWMAwxAzRSB0zn4KOkhCwP1MVUbpVYHl9vyjpQsoIfB5TZzmZJYgMoV+BCEilXfgvxthJ4g+C06AjCF6AECikDzUeoN5mhdHagSoxSlZF1W9SLaKhWbbz3BZGiUnL3mAiCtU7WpoCRXxJkKlT2AUT7LKLozgEdd3pMRi98hII4LlbVQUaGvo04vgtQRoA0dL1iIIP8V0FyUMlUUJVVZ9TqKyOm64kGpB8LTsHbndB+f2AYk396mXEPS0IKxyrUOKowmZ1ntkIEPnUL2PsNCP1JxEdQM7OfV2b4Qg+RReye8RAWex59fkwPYdz8wqE4ZpQ6Pbr/IBNRFPg2YZioLaAkWYNFlK+zGIze2+1QalC46YUBTUhoFbtFrE8i1oiQ5QBhvtmkW35xzHp1rm2f2k2dmEiBsHatcmU+Cd9AuYKMkHQ6ftfjGIHO73o6S1h8HYNgZcqFgsy3mUZi3mRbvtA7oyGnNB1dVtaih/A9z0Z0BYdTZbbX6CabB3hbHKDFLFfby4GfnMubQTXP201EZ5WPHPNivZ3jbWU/ZMPFXc5RWLsAtU7aBjKOU7UQmWjUH2MuiF78qE7Ia2ZmjwyQ/7PO4F27r3s8GeIT95KX0v+b68O/++3R6ebldn5fr/r6sr253bbn/Cw==);lineShape=1;strokeColor=default;" vertex="1" parent="_o2MQma5wxqa7WwXLpFi-25">
          <mxGeometry x="58.43985724207363" y="79.14146824258206" width="19.574605468302014" height="24.22947002642137" as="geometry" />
        </mxCell>
        <mxCell id="_o2MQma5wxqa7WwXLpFi-26" value="Throughput" style="text;html=1;align=center;verticalAlign=middle;whiteSpace=wrap;rounded=0;fontSize=16;fontStyle=1" vertex="1" parent="1">
          <mxGeometry x="710" y="350" width="60" height="30" as="geometry" />
        </mxCell>
        <mxCell id="_o2MQma5wxqa7WwXLpFi-28" value="" style="endArrow=none;html=1;rounded=0;" edge="1" parent="1">
          <mxGeometry width="50" height="50" relative="1" as="geometry">
            <mxPoint x="470" y="294.57" as="sourcePoint" />
            <mxPoint x="550" y="294.57" as="targetPoint" />
          </mxGeometry>
        </mxCell>
        <mxCell id="_o2MQma5wxqa7WwXLpFi-29" value="" style="endArrow=none;html=1;rounded=0;" edge="1" parent="1">
          <mxGeometry width="50" height="50" relative="1" as="geometry">
            <mxPoint x="310" y="294.57" as="sourcePoint" />
            <mxPoint x="390" y="294.57" as="targetPoint" />
          </mxGeometry>
        </mxCell>
      </root>
    </mxGraphModel>
  </diagram>
</mxfile>
